<?xml version="1.0" encoding="utf-8"?>
<!-- Generator: Adobe Illustrator 25.2.1, SVG Export Plug-In . SVG Version: 6.00 Build 0)  -->
<svg version="1.1" id="katman_1" xmlns="http://www.w3.org/2000/svg" xmlns:xlink="http://www.w3.org/1999/xlink" x="0px" y="0px"
	 viewBox="0 0 39 27" style="enable-background:new 0 0 39 27;" xml:space="preserve">
<style type="text/css">
	.st0{clip-path:url(#SVGID_2_);}
	.st1{fill:none;stroke:#404040;stroke-width:2.5;stroke-linecap:round;stroke-linejoin:round;}
	.st2{clip-path:url(#SVGID_4_);}
</style>
<g>
	<defs>
		<rect id="SVGID_1_" x="0.8" y="0.9" width="23.8" height="25.8"/>
	</defs>
	<clipPath id="SVGID_2_">
		<use xlink:href="#SVGID_1_"  style="overflow:visible;"/>
	</clipPath>
	<g class="st0">
		<path class="st1" d="M5.9,2.6L2.5,7v15.5c0,0.6,0.2,1.2,0.7,1.6c0.4,0.4,1,0.6,1.6,0.6h15.8c0.6,0,1.2-0.2,1.6-0.6
			c0.4-0.4,0.7-1,0.7-1.6V7l-3.4-4.4H5.9z"/>
		<path class="st1" d="M2.5,7h20.4"/>
		<path class="st1" d="M17.2,11.5c0,1.2-0.5,2.3-1.3,3.1c-0.8,0.8-2,1.3-3.2,1.3s-2.4-0.5-3.2-1.3c-0.8-0.8-1.3-2-1.3-3.1"/>
	</g>
</g>
<g>
	<defs>
		<rect id="SVGID_3_" x="27.1" y="8.4" width="11.9" height="10.8"/>
	</defs>
	<clipPath id="SVGID_4_">
		<use xlink:href="#SVGID_3_"  style="overflow:visible;"/>
	</clipPath>
	<g class="st2">
		<path class="st1" d="M29,13.7H37"/>
	</g>
</g>
</svg>
