<svg width="27" height="27" viewBox="0 0 27 27" fill="none" xmlns="http://www.w3.org/2000/svg">
<path d="M19.0448 3H8.95519C5.67144 3 3 5.67144 3 8.95519V19.0449C3 22.3285 5.67144 25 8.95519 25H19.0449C22.3285 25 25 22.3285 25 19.0449V8.95519C25 5.67144 22.3285 3 19.0448 3V3ZM23.7102 19.0449C23.7102 21.6173 21.6173 23.7102 19.0448 23.7102H8.95519C6.38261 23.7102 4.28973 21.6173 4.28973 19.0449V8.95519C4.28973 6.38261 6.38261 4.28973 8.95519 4.28973H19.0449C21.6173 4.28973 23.7102 6.38261 23.7102 8.95519V19.0449Z" fill="#404040"/>
<path d="M13.9998 7.98462C10.6828 7.98462 7.98438 10.6831 7.98438 14.0001C7.98438 17.317 10.6828 20.0155 13.9998 20.0155C17.3168 20.0155 20.0153 17.317 20.0153 14.0001C20.0153 10.6831 17.3168 7.98462 13.9998 7.98462ZM13.9998 18.7258C11.3942 18.7258 9.27411 16.6059 9.27411 14.0001C9.27411 11.3944 11.3942 9.27435 13.9998 9.27435C16.6056 9.27435 18.7255 11.3944 18.7255 14.0001C18.7255 16.6059 16.6056 18.7258 13.9998 18.7258Z" fill="#404040"/>
<path d="M20.1593 5.84814C19.1791 5.84814 18.3818 6.64558 18.3818 7.62564C18.3818 8.60586 19.1791 9.4033 20.1593 9.4033C21.1396 9.4033 21.937 8.60586 21.937 7.62564C21.937 6.64541 21.1396 5.84814 20.1593 5.84814ZM20.1593 8.1134C19.8904 8.1134 19.6716 7.89453 19.6716 7.62564C19.6716 7.35658 19.8904 7.13788 20.1593 7.13788C20.4284 7.13788 20.6473 7.35658 20.6473 7.62564C20.6473 7.89453 20.4284 8.1134 20.1593 8.1134Z" fill="#404040"/>
</svg>
