<svg id="Capa_1" enable-background="new 0 0 502.228 502.228" height="512" viewBox="0 0 502.228 502.228" width="512" xmlns="http://www.w3.org/2000/svg"><g><g><path d="m477.923 71.766c-45.214-70.726-155.48-38.703-226.581-36.713-53.721 8.192-107.17 2.107-160.742 2.809-74.4-3.612-79.138 12.394-73.044 82.915-.726 59.309 2.509 113.517 4.294 173.677 2.312 43.124-9.845 93.798 19.749 129.882 78.223 59.129 203.431-8.479 296.566 2.257 73.507.682 136.241-19.287 131.697-105.497 1.173-82.928 12.83-166.807 8.061-249.33z" fill="#ffb6bd"/><path d="m341.44 276.832c-.315-15.784-13.562-30.787-30.001-30-41.803 12.283-103.17-17.596-134.154 15.418-10.715 24.843 8.854 59.848 27.533 76.719 47.052 16.738 139.058 2.241 136.622-62.137z" fill="#80aeff"/></g><g fill="#2e386b"><path d="m351.826 299.757c3.29-12.014 8.63-22.1 7.569-35.941-8.908-63.26-134.794-15.61-178.628-23.253-3.761-28.028-29.453-46.525-55.351-52.558-10.438-3.096-15.241 13.385-4.611 16.266 73.458 13.634 20.597 95.053 67.995 130.553 24.508 19.016 57.186 14.952 85.935 16.665 36.756 3.373 70.441-12.808 77.091-51.732zm-22.523-26.668c-10.042 48.817-14.645 55.722-65.942 55.983-58.252 3.433-82.813-8.689-80.549-71.065 26.189 6.854 53.17 4.575 79.774 3.876 11.91 1.424 75.335-9.21 66.717 11.206z"/><path d="m469.244 36.956c-63.184-26.706-135.661-11.364-202.175-9.933-49.002 2.364-98.772 2.153-147.901 2.404-45.205-1.715-120.061-9.842-116.799 55.865-.318 9.008.19 18.222.903 27.323-2.243 2.548-3.563 6.042-3.217 10.47 3.056 48.232 3.827 96.483 3.774 144.844 6.064 70.009-33.168 207.789 74.092 209.958 106.949 4.803 212.335-1.907 319.085 2.992 37.094.248 81.734-13.56 92.733-53.651 3.12-9.643 8.542-26.527-6.006-28.609-6.01-.579-11.351 3.836-11.914 9.848-5.162 65.334-86.024 54.66-133.528 52.515-89.173-3.381-178.975 2.438-267.777-5.1-55.899-3.906-43.223-75.419-42.956-114.653 1.582-48.659 3.26-97.345 3.409-146.1.059-22.514-.19-45.02-.8-67.533 5.016-.069 10.005-.117 13.99-.145 53.384-.678 108.319-.24 161.722 1.115 77.014 3.186 157.488 12.355 234.574 9.526 11.673-.378 24.486-.689 36.561-1.561-2.094 61.634-16.807 140.701-10.127 174.453.585 19.318 31.343 17.97 29.955-1.555-2.652-48.876-.622-97.849 2.767-146.796 1.42-41.618 13.638-100.958-30.365-125.677zm-15.989 17.805c10.327 3.075 16.604 12.957 20.136 27.241-.502 2.97-1.336 6.167-2.592 9.627-8.354 14.486-32.728 19.261-44.294 6.269-20.119-26.614-.529-44.025 19.237-45.535 2.514.749 5.021 1.534 7.513 2.398zm-62.684 23.087c.217 31.944-42.494 35.616-54.686 9.388-13.315-42.392 50.718-52.651 54.686-9.388zm-365.566 33.021c-.453-.361-.921-.701-1.414-1.001-12.568-72.46 33.982-64.083 95.533-62.243 53.593-.12 107.885 1.458 161.416-1.491 14.786-.208 29.815-1.003 44.92-1.739-7.915 7.576-13.808 18.468-15.924 32.76-.65 11.375 1.393 21.089 5.281 29.094-96.621-1.785-193.833 3.379-289.812 4.62z"/><path d="m190.479 406.761c13.28 31.437 58.094 13.796 47.526-18.731-12.643-30.892-58.158-13.141-47.526 18.731z"/><path d="m271.52 407.179c13.486 29.036 58.202 11.485 47.893-19.436-11.601-33.275-61.551-13.121-47.893 19.436z"/></g></g></svg>