<svg width="27" height="28" viewBox="0 0 27 28" fill="none" xmlns="http://www.w3.org/2000/svg">
<path d="M5.22266 25H12.3984V17.1797H9.82031V14.6016H12.3984V11.3789C12.3984 9.60191 13.8441 8.15625 15.6211 8.15625H18.8438V10.7344H16.2656C15.5548 10.7344 14.9766 11.3126 14.9766 12.0234V14.6016H18.7274L18.2977 17.1797H14.9766V25H20.7773C22.5543 25 24 23.5543 24 21.7773V6.22266C24 4.44566 22.5543 3 20.7773 3H5.22266C3.44566 3 2 4.44566 2 6.22266V21.7773C2 23.5543 3.44566 25 5.22266 25ZM3.28906 6.22266C3.28906 5.15649 4.15649 4.28906 5.22266 4.28906H20.7773C21.8435 4.28906 22.7109 5.15649 22.7109 6.22266V21.7773C22.7109 22.8435 21.8435 23.7109 20.7773 23.7109H16.2656V18.4688H19.3898L20.2491 13.3125H16.2656V12.0234H20.1328V6.86719H15.6211C13.1333 6.86719 11.1094 8.89108 11.1094 11.3789V13.3125H8.53125V18.4688H11.1094V23.7109H5.22266C4.15649 23.7109 3.28906 22.8435 3.28906 21.7773V6.22266Z" fill="#404040"/>
</svg>
