<svg width="27" height="28" viewBox="0 0 27 28" fill="none" xmlns="http://www.w3.org/2000/svg">
<g clip-path="url(#clip0)">
<path d="M24 7.42425C22.6161 7.48804 22.6463 7.48283 22.4899 7.49592L23.3095 5.1553C23.3095 5.1553 20.7512 6.09642 20.1026 6.26477C18.3993 4.73384 15.8675 4.6662 14.0574 5.77869C12.5752 6.68993 11.7796 8.25476 12.045 10.0838C9.16017 9.68347 6.72958 8.31602 4.81059 6.01082L4.20366 5.28186L3.75014 6.11471C3.17694 7.16711 2.9866 8.37041 3.21403 9.50287C3.30736 9.96747 3.46597 10.4106 3.68568 10.8255L3.16502 10.6237L3.10326 11.4937C3.04065 12.3774 3.33488 13.409 3.89046 14.2529C4.04689 14.4906 4.24831 14.7516 4.5036 15.0091L4.23454 14.9678L4.56285 15.9646C4.99438 17.2743 5.89069 18.2876 7.05386 18.8509C5.8922 19.3439 4.95377 19.6584 3.41125 20.1658L2 20.6298L3.3035 21.3424C3.80049 21.6142 5.55667 22.5217 7.29187 22.794C11.149 23.3989 15.4917 22.9063 18.4152 20.2733C20.8777 18.0555 21.6857 14.9008 21.5179 11.6179C21.4925 11.1209 21.6287 10.6466 21.9012 10.2825C22.4472 9.55356 23.9966 7.42912 24 7.42425ZM20.8705 9.51042C20.4178 10.1148 20.1911 10.8868 20.2317 11.6837C20.401 14.9951 19.5 17.5632 17.5535 19.3162C15.2797 21.3641 11.6121 22.1679 7.49144 21.5215C6.74519 21.4045 5.97394 21.1425 5.33562 20.8809C6.62888 20.4359 7.62756 20.0393 9.2404 19.2759L11.4919 18.2102L9.00609 18.0511C7.81538 17.9749 6.82391 17.3979 6.21446 16.461C6.53807 16.4422 6.8501 16.3898 7.16078 16.3032L9.53162 15.6429L7.14098 15.0574C5.97931 14.7729 5.31715 14.0779 4.96619 13.5448C4.73573 13.1945 4.58517 12.8356 4.49487 12.5048C4.73456 12.5691 5.01402 12.6149 5.46469 12.6596L7.67741 12.8784L5.92426 11.5108C4.66104 10.5256 4.15482 9.04532 4.52592 7.62231C8.46831 11.7114 13.0972 11.4041 13.5631 11.5122C13.4606 10.516 13.4579 10.5136 13.431 10.4188C12.8343 8.30948 14.142 7.23845 14.7318 6.8759C15.9638 6.11874 17.9194 6.00461 19.2739 7.25204C19.5665 7.52127 19.9621 7.62718 20.3324 7.5352C20.6647 7.45262 20.9375 7.36517 21.2045 7.27L20.6486 8.8575L21.3583 8.858C21.2243 9.0376 21.0637 9.25261 20.8705 9.51042Z" fill="#404040"/>
</g>
<defs>
<clipPath id="clip0">
<rect width="22" height="22" fill="white" transform="translate(2 3)"/>
</clipPath>
</defs>
</svg>
