<svg width="27" height="27" viewBox="0 0 27 27" fill="none" xmlns="http://www.w3.org/2000/svg">
<path d="M17.5643 12.4534L12.4081 9.23078C12.2093 9.1066 11.9589 9.10003 11.754 9.2136C11.549 9.32716 11.4219 9.54304 11.4219 9.77735V16.2227C11.4219 16.457 11.549 16.6728 11.754 16.7864C11.8513 16.8404 11.9589 16.8672 12.0664 16.8672C12.1851 16.8672 12.3037 16.8344 12.408 16.7692L17.5643 13.5466C17.7527 13.4288 17.8672 13.2222 17.8672 13C17.8672 12.7778 17.7528 12.5712 17.5643 12.4534ZM12.711 15.0598V10.9402L16.0066 13L12.711 15.0598Z" fill="#404040"/>
<path d="M21.7773 4.62109H6.22266C4.44568 4.62109 3 6.06678 3 7.84375V18.1562C3 19.9332 4.44568 21.3789 6.22266 21.3789H21.7773C23.5543 21.3789 25 19.9332 25 18.1562V7.84375C25 6.06678 23.5543 4.62109 21.7773 4.62109ZM23.7109 18.1562C23.7109 19.2224 22.8435 20.0898 21.7773 20.0898H6.22266C5.15647 20.0898 4.28906 19.2224 4.28906 18.1562V7.84375C4.28906 6.77757 5.15647 5.91016 6.22266 5.91016H21.7773C22.8435 5.91016 23.7109 6.77757 23.7109 7.84375V18.1562Z" fill="#404040"/>
</svg>
